<?xml version="1.0" standalone="no"?>
<!DOCTYPE svg PUBLIC "-//W3C//DTD SVG 20010904//EN"
 "http://www.w3.org/TR/2001/REC-SVG-20010904/DTD/svg10.dtd">
<svg version="1.0" xmlns="http://www.w3.org/2000/svg"
 width="650.000000pt" height="650.000000pt" viewBox="0 0 650.000000 650.000000"
 preserveAspectRatio="xMidYMid meet">
<metadata>
Created by potrace 1.11, written by Peter Selinger 2001-2013
</metadata>
<g transform="translate(0.000000,650.000000) scale(0.100000,-0.100000)"
fill="#000000" stroke="none">
<path d="M2297 6013 c-24 -6 -44 -49 -130 -283 -133 -363 -213 -647 -241 -859
-15 -114 -155 -273 -277 -315 -94 -33 -161 -9 -201 72 -19 39 -23 62 -23 137
1 77 5 97 27 140 41 78 106 130 178 141 48 8 79 30 85 61 5 30 -19 47 -72 49
-49 3 -67 14 -89 55 -27 54 -21 62 76 92 302 93 446 231 386 370 -28 67 -88
97 -193 97 -264 0 -502 -160 -538 -362 -7 -34 -10 -38 -39 -38 -36 0 -121 22
-156 40 -14 6 -52 41 -85 76 -54 57 -65 64 -98 64 -74 0 -121 -45 -121 -115 0
-56 22 -83 99 -120 81 -39 194 -64 317 -69 90 -4 108 -9 108 -29 0 -17 69 -87
86 -87 8 0 14 -4 14 -10 0 -5 -8 -10 -18 -10 -34 0 -122 -52 -159 -94 -64 -73
-90 -184 -70 -294 17 -100 108 -215 204 -259 65 -30 83 -34 162 -34 86 0 163
24 241 76 94 63 105 75 139 146 16 35 28 53 27 39 -2 -14 0 -52 5 -85 8 -49
15 -65 42 -88 28 -25 39 -28 94 -26 67 2 111 24 160 78 68 74 139 222 150 311
6 55 -14 85 -51 74 -28 -9 -48 -38 -67 -100 -52 -165 -153 -284 -197 -231 -15
18 -4 89 33 207 13 41 99 249 136 328 22 46 39 85 39 87 0 2 36 79 81 172 154
322 169 357 169 403 0 94 -145 215 -233 193z m-411 -353 c33 -13 45 -48 28
-81 -18 -35 -114 -99 -206 -137 -76 -31 -148 -50 -148 -37 0 27 73 135 121
179 74 69 150 97 205 76z"/>
<path d="M5063 5329 c-33 -9 -83 -60 -83 -84 0 -8 -24 -103 -54 -212 -50 -179
-113 -422 -121 -465 -2 -9 -22 -95 -44 -190 -35 -153 -102 -481 -115 -563 -3
-16 -12 -70 -20 -120 -8 -49 -18 -110 -21 -135 -3 -25 -8 -56 -10 -70 -2 -14
-9 -68 -15 -120 -6 -52 -13 -111 -16 -130 -3 -19 -7 -169 -9 -333 l-4 -298
-36 -117 c-89 -281 -219 -475 -335 -499 -39 -7 -50 6 -50 62 0 80 40 215 195
660 150 432 175 529 155 605 -36 133 -214 239 -385 228 -84 -6 -130 -28 -158
-76 -17 -30 -46 -139 -61 -232 -3 -19 -7 -44 -10 -55 -2 -11 -7 -42 -10 -68
-4 -27 -9 -57 -11 -66 -2 -10 -6 -42 -10 -72 -6 -52 -10 -77 -21 -144 -12 -72
-57 -261 -88 -371 -108 -378 -238 -612 -356 -644 -84 -23 -116 17 -106 135 9
123 54 274 233 795 77 224 115 348 114 373 -1 55 -31 114 -82 168 -137 142
-334 179 -416 78 -29 -35 -132 -406 -167 -599 -5 -33 -18 -100 -22 -125 -8
-40 -23 -151 -29 -210 -12 -122 -16 -142 -41 -235 -51 -188 -120 -348 -188
-435 -40 -52 -52 -62 -103 -86 -49 -23 -87 -19 -117 11 -19 18 -21 32 -20 123
0 56 8 140 18 187 27 133 101 393 178 624 69 208 258 728 276 763 6 10 10 20
10 23 0 3 5 16 10 30 5 14 62 165 127 335 274 723 275 728 190 860 -149 232
-493 364 -569 217 -13 -25 -113 -352 -185 -602 -35 -123 -121 -438 -126 -460
-2 -8 -19 -78 -38 -155 -30 -121 -94 -406 -112 -500 -15 -81 -64 -358 -70
-392 -3 -21 -7 -48 -9 -58 -2 -11 -7 -49 -11 -85 -4 -36 -9 -72 -10 -80 -5
-24 -14 -129 -20 -215 -10 -138 -14 -158 -49 -263 -38 -115 -87 -209 -151
-291 -107 -139 -285 -260 -465 -315 -239 -74 -333 -66 -426 37 -69 77 -121
197 -139 319 -4 23 -10 59 -14 78 -20 93 -18 479 3 610 2 14 7 47 11 73 4 27
8 59 11 70 2 12 6 36 8 52 4 28 31 157 42 198 2 9 6 27 9 40 3 12 21 78 41
147 93 319 242 603 402 767 111 114 216 172 328 181 107 8 142 -33 101 -122
-80 -174 -376 -405 -572 -446 -61 -13 -104 -49 -106 -89 -5 -113 59 -204 186
-267 53 -26 70 -29 145 -28 326 5 652 315 736 699 16 74 0 195 -36 265 -39 77
-164 170 -265 199 -126 36 -386 34 -571 -4 -322 -67 -598 -249 -793 -521 -97
-137 -215 -395 -246 -537 -2 -12 -13 -64 -24 -114 -11 -51 -22 -121 -26 -155
-4 -35 -9 -76 -11 -93 -5 -43 -6 -314 0 -355 2 -19 7 -62 11 -95 16 -154 68
-366 125 -511 148 -376 417 -634 705 -679 48 -8 154 -8 198 0 18 3 43 7 57 9
46 7 150 37 219 61 146 53 289 144 406 259 112 111 137 147 140 199 3 61 24
143 55 212 l26 60 -4 -113 c-3 -68 0 -137 8 -175 7 -34 14 -72 16 -84 12 -67
63 -132 128 -165 57 -30 174 -36 252 -13 124 36 194 89 299 225 56 74 63 88
63 138 1 24 4 58 7 75 9 40 37 129 40 125 1 -2 5 -48 8 -103 12 -187 41 -251
135 -297 53 -25 173 -33 242 -16 62 16 156 77 216 140 75 80 164 224 164 265
0 23 86 273 97 284 5 5 6 -16 3 -47 -19 -169 27 -331 117 -419 85 -83 237 -80
386 9 118 69 296 301 302 390 4 66 16 129 31 156 7 14 14 21 14 15 1 -5 3 -38
5 -73 4 -81 39 -154 111 -231 62 -67 118 -97 213 -115 169 -32 370 20 528 135
83 61 228 210 300 310 199 276 358 646 390 911 19 153 0 322 -45 413 -94 191
-364 249 -603 129 -105 -52 -216 -169 -275 -290 -41 -85 -29 -151 34 -176 67
-26 121 1 168 87 49 90 64 106 92 103 21 -2 28 -10 34 -38 9 -41 7 -217 -3
-275 -4 -22 -9 -60 -13 -85 -3 -25 -8 -56 -11 -70 -3 -14 -8 -43 -11 -65 -13
-90 -163 -499 -230 -626 -75 -143 -159 -209 -268 -212 -75 -2 -108 16 -143 79
-46 83 -51 261 -13 459 5 28 12 61 14 75 2 14 10 48 16 75 6 28 13 58 15 68 2
10 7 27 10 37 3 10 8 27 10 37 55 239 187 629 470 1388 151 403 169 460 169
535 0 47 -6 76 -21 105 -96 181 -396 339 -560 294z"/>
<path d="M5206 3378 c-11 -41 -6 -105 11 -158 23 -73 100 -140 159 -140 58 0
114 57 114 115 0 25 -50 73 -83 80 -67 15 -177 87 -177 116 0 18 -18 8 -24
-13z"/>
<path d="M6095 1799 c-16 -5 -43 -11 -60 -14 -42 -7 -79 -14 -160 -30 -38 -8
-86 -17 -105 -20 -19 -3 -42 -8 -50 -10 -8 -2 -31 -7 -50 -10 -19 -3 -136 -26
-260 -51 -124 -24 -238 -47 -255 -49 -16 -3 -84 -16 -150 -30 -66 -13 -133
-27 -150 -29 -198 -34 -303 -59 -298 -72 7 -18 5 -18 147 10 66 14 137 28 156
31 19 3 112 21 205 40 216 42 444 87 470 90 11 2 52 10 90 18 39 9 86 18 105
21 19 3 78 14 130 25 52 11 111 23 130 26 78 13 110 23 126 39 21 22 16 25
-21 15z"/>
<path d="M5880 1689 c-19 -4 -50 -11 -69 -14 -18 -3 -77 -14 -130 -25 -53 -11
-111 -22 -130 -25 -19 -3 -112 -21 -205 -40 -94 -19 -184 -37 -201 -40 -33 -5
-34 -6 -185 -36 -58 -11 -116 -23 -130 -25 -153 -27 -240 -49 -240 -59 0 -10
14 -10 64 1 34 7 74 15 88 18 14 2 130 25 259 50 129 25 245 48 259 50 24 5
113 22 155 30 11 2 54 11 95 19 41 9 95 19 119 22 23 3 55 11 70 16 14 6 27
10 29 9 2 -2 91 11 102 15 3 1 28 5 57 10 29 4 54 14 57 21 6 16 -10 17 -64 3z"/>
<path d="M4397 1573 c-5 -9 -108 -323 -111 -337 -2 -12 25 -15 51 -5 12 4 24
20 28 37 5 26 12 31 55 39 50 10 70 3 70 -23 0 -7 5 -14 12 -16 22 -8 58 4 58
18 0 21 -139 294 -149 294 -6 0 -12 -3 -14 -7z m38 -175 c4 -17 3 -28 -3 -28
-6 0 -17 -3 -25 -6 -13 -5 -14 1 -5 36 11 44 22 43 33 -2z"/>
<path d="M4177 1535 c-104 -21 -107 -23 -107 -57 0 -29 1 -30 41 -24 22 3 44
8 50 11 15 10 11 -4 -40 -136 -27 -70 -45 -132 -41 -139 4 -6 9 -11 11 -9 2 1
42 9 89 18 84 17 85 17 88 49 4 35 0 37 -61 23 -34 -8 -38 -7 -32 7 4 10 11
28 15 42 4 14 22 62 39 108 30 82 38 123 24 121 -5 0 -39 -7 -76 -14z"/>
<path d="M3967 1493 c-17 -4 -18 -14 -15 -94 2 -49 3 -89 1 -89 -1 0 -37 34
-80 75 -43 41 -84 75 -92 75 -12 0 -12 -92 2 -317 0 -8 14 -13 35 -13 l35 0
-6 97 -6 97 83 -83 c59 -59 87 -80 99 -75 9 3 15 9 12 13 -2 4 -7 75 -11 157
-3 82 -8 152 -11 157 -4 7 -17 8 -46 0z"/>
<path d="M3580 1408 c0 -7 -23 -82 -51 -167 -27 -85 -48 -160 -45 -167 9 -25
60 -1 70 34 7 27 15 32 59 42 27 6 51 9 52 8 1 -2 8 -13 14 -25 12 -23 45 -30
67 -15 17 10 -125 296 -148 300 -10 2 -18 -2 -18 -10z m50 -180 c0 -12 -7 -18
-24 -18 -22 0 -22 2 -12 35 10 32 12 34 24 18 6 -9 12 -25 12 -35z"/>
<path d="M3275 1356 c-75 -14 -83 -19 -79 -53 2 -16 6 -84 9 -153 4 -68 9
-128 12 -133 2 -4 12 -5 21 -3 10 3 35 8 57 12 55 8 112 42 136 80 25 41 34
113 20 155 -28 83 -82 112 -176 95z m84 -85 c50 -53 32 -139 -35 -167 -19 -8
-38 -13 -42 -10 -4 2 -8 43 -10 91 -1 48 -5 91 -7 96 -5 7 16 14 53 18 8 0 26
-12 41 -28z"/>
<path d="M2945 1293 c-44 -9 -82 -17 -85 -20 -4 -4 -1 -143 5 -218 1 -16 3
-47 4 -69 l1 -38 43 5 c23 3 66 11 95 17 49 11 52 13 52 42 l0 31 -50 -7 c-28
-4 -56 -9 -63 -12 -9 -3 -14 7 -15 30 -2 30 1 36 20 40 79 16 78 16 78 45 0
38 -5 40 -51 29 -44 -12 -48 -10 -54 20 -5 27 7 34 69 47 36 7 50 15 52 29 3
21 -5 46 -15 45 -3 -1 -42 -8 -86 -16z"/>
<path d="M2659 1236 c-2 -2 -23 -6 -47 -10 -24 -3 -48 -8 -53 -12 -6 -3 -7
-49 -3 -117 3 -62 6 -134 7 -160 l0 -49 46 6 c59 6 102 20 133 40 68 45 92
178 43 242 -14 19 -35 39 -47 45 -23 12 -72 22 -79 15z m52 -85 c20 -16 24
-28 24 -75 0 -63 -18 -90 -73 -105 l-32 -10 -1 42 c-1 23 -3 67 -4 97 -2 33 2
58 9 62 20 13 53 8 77 -11z"/>
<path d="M2444 1073 c-8 -2 -601 -124 -924 -189 -69 -14 -134 -27 -145 -29
-11 -3 -107 -22 -214 -44 -106 -22 -195 -42 -198 -45 -2 -2 9 -7 25 -11 25 -5
192 24 402 70 8 2 130 27 270 55 140 28 306 62 368 76 63 13 128 26 145 29 18
3 86 17 151 31 66 13 129 26 140 28 27 4 35 35 8 33 -10 0 -23 -2 -28 -4z"/>
<path d="M2445 1014 c-5 -2 -86 -20 -180 -39 -93 -20 -224 -47 -290 -61 -190
-41 -258 -55 -290 -60 -16 -3 -55 -12 -85 -19 -31 -8 -73 -17 -95 -20 -22 -4
-65 -13 -95 -20 -30 -8 -66 -16 -80 -18 -97 -18 -151 -31 -156 -38 -12 -19 57
-8 326 51 52 12 106 23 120 26 14 2 57 11 95 19 39 8 79 17 90 19 11 2 76 16
145 31 69 15 134 28 145 30 11 1 27 5 35 8 8 3 32 9 54 12 21 3 41 7 45 9 3 2
24 7 46 11 22 4 45 8 50 9 6 1 37 8 70 15 84 17 95 21 95 32 0 9 -26 11 -45 3z"/>
</g>
</svg>
